<svg width="13" height="44" viewBox="0 0 13 44" fill="none" xmlns="http://www.w3.org/2000/svg">
<path style="mix-blend-mode:screen" d="M8.33842 18.4877L4.4057 24.288H2.65599L1.23193 18.4877H3.05064L3.94758 22.2576L6.51143 18.4877H8.33842Z" fill="url(#paint0_linear_313_443)"/>
<path style="mix-blend-mode:screen" d="M6.92818 27.354C6.46177 27.2392 6.08368 27.0887 5.79114 26.9076L6.48937 25.6807C6.80674 25.8695 7.14344 26.0098 7.50221 26.1067C7.86099 26.2036 8.21976 26.2521 8.57854 26.2521C8.93731 26.2521 9.18293 26.2062 9.3706 26.1144C9.55827 26.0225 9.6521 25.8975 9.6521 25.7369C9.6521 25.5991 9.56654 25.492 9.39544 25.4129C9.22433 25.3364 8.95939 25.2522 8.60337 25.1655C8.19768 25.066 7.85823 24.9665 7.59053 24.862C7.32283 24.7599 7.091 24.6043 6.89506 24.3952C6.70187 24.186 6.60252 23.908 6.60252 23.5662C6.60252 23.153 6.72395 22.7882 6.96957 22.477C7.21519 22.1658 7.56293 21.9235 8.0183 21.7526C8.47366 21.5817 9.00355 21.495 9.61346 21.495C10.0605 21.495 10.48 21.5384 10.8692 21.6225C11.2583 21.7093 11.5922 21.8317 11.8737 21.9924L11.2279 23.2091C10.9823 23.0662 10.7119 22.9566 10.4166 22.8826C10.1213 22.8086 9.81769 22.7704 9.50583 22.7704C9.15257 22.7704 8.87659 22.8239 8.67789 22.9285C8.47642 23.0331 8.37707 23.1683 8.37707 23.3341C8.37707 23.4769 8.46262 23.5891 8.63649 23.6657C8.81036 23.7422 9.07806 23.8264 9.44235 23.9131C9.84804 24.0075 10.1847 24.1044 10.4497 24.2039C10.7146 24.3033 10.9437 24.4564 11.1341 24.6604C11.3245 24.8645 11.4211 25.1323 11.4211 25.4639C11.4211 25.872 11.2969 26.2342 11.0486 26.5454C10.8002 26.8566 10.4469 27.0989 9.99155 27.2698C9.53343 27.4407 9.00355 27.5275 8.39915 27.5275C7.88031 27.5275 7.3863 27.4688 6.9199 27.354H6.92818Z" fill="url(#paint1_linear_313_443)"/>
<path style="mix-blend-mode:screen" d="M0.900757 44C1.6735 40.2836 2.55388 36.5901 3.47013 32.9069C3.91722 31.0627 4.4057 29.2288 4.87487 27.3871L6.33756 21.8827L7.85821 16.391C8.38534 14.5646 8.89038 12.7332 9.43682 10.912C9.9667 9.08823 10.5187 7.26701 11.0734 5.44835L12.7734 0C12.6299 0.938667 12.4202 1.86458 12.227 2.79304C12.031 3.72151 11.8185 4.64742 11.6143 5.57333L10.9685 8.34597C10.7532 9.26933 10.5214 10.1901 10.2979 11.1135C10.0743 12.0369 9.84527 12.9577 9.60793 13.8759L8.90418 16.6358L7.44148 22.1403L5.91807 27.632C5.39095 29.4583 4.88039 31.2872 4.33119 33.1084C3.25211 36.7534 2.13439 40.3907 0.906276 44.0025L0.900757 44Z" fill="url(#paint2_linear_313_443)"/>
<defs>
<linearGradient id="paint0_linear_313_443" x1="-2.65387" y1="19.0871" x2="6.39904" y2="22.0774" gradientUnits="userSpaceOnUse">
<stop stop-color="#747474"/>
<stop offset="0.15" stop-color="#4D4D4D"/>
<stop offset="0.43" stop-color="#D8D8D8"/>
<stop offset="0.63" stop-color="#D8D8D8"/>
<stop offset="0.93" stop-color="#4D4D4D"/>
<stop offset="0.95" stop-color="#5E5E5E"/>
<stop offset="1" stop-color="#7D7D7D"/>
</linearGradient>
<linearGradient id="paint1_linear_313_443" x1="6.83158" y1="23.9717" x2="14.2461" y2="26.147" gradientUnits="userSpaceOnUse">
<stop stop-color="#747474"/>
<stop offset="0.15" stop-color="#4D4D4D"/>
<stop offset="0.43" stop-color="#D8D8D8"/>
<stop offset="0.63" stop-color="#D8D8D8"/>
<stop offset="0.93" stop-color="#4D4D4D"/>
<stop offset="0.95" stop-color="#5E5E5E"/>
<stop offset="1" stop-color="#7D7D7D"/>
</linearGradient>
<linearGradient id="paint2_linear_313_443" x1="6.83709" y1="1.52788" x2="6.83709" y2="43.4924" gradientUnits="userSpaceOnUse">
<stop stop-color="#747474"/>
<stop offset="0.15" stop-color="#4D4D4D"/>
<stop offset="0.43" stop-color="#D8D8D8"/>
<stop offset="0.63" stop-color="#D8D8D8"/>
<stop offset="0.93" stop-color="#4D4D4D"/>
<stop offset="0.95" stop-color="#5E5E5E"/>
<stop offset="1" stop-color="#7D7D7D"/>
</linearGradient>
</defs>
</svg>
